<svg xmlns="http://www.w3.org/2000/svg" viewBox="0 0 200 200" width="200" height="200" role="img">
  <title>ExecForward — Isotipo (monocromo)</title>
  <desc>Símbolo de Avance Horizontal: barras + chevrones.</desc>
  <g transform="translate(40, 44)">
  <rect x="0" y="0" width="72" height="16" rx="3" fill="#000000"></rect>
  <rect x="0" y="22" width="72" height="16" rx="3" fill="#000000"></rect>
  <rect x="0" y="44" width="72" height="16" rx="3" fill="#000000"></rect>
  <rect x="0" y="66" width="72" height="16" rx="3" fill="#000000"></rect>
  <rect x="0" y="88" width="72" height="16" rx="3" fill="#000000"></rect>
  <polygon points="73,0 93,56 73,112 84,112 104,56 84,0" fill="#000000"></polygon>
  <polygon points="96,0 116,56 96,112 107,112 127,56 107,0" fill="#000000" opacity="0.6"></polygon>
  <polygon points="119,0 139,56 119,112 130,112 150,56 130,0" fill="#000000" opacity="0.3"></polygon>
  </g>
</svg>